# xmcd CD database file
#
# Track frame offsets:
#	150
#	7399
#	23427
#	45979
#	68047
#	82073
#	95219
#	108080
#	127061
#	146884
#	160736
#	174016
#	187859
#	204127
#	219102
#	231409
#
# Disc length: 3323 seconds
#
# Revision: 4
# Processed by: cddbd v1.5.1PL0 Copyright (c) Steve Scherf et al.
# Submitted via: CdAid (MTCDDB.DLL V2003.12.21)
#
DISCID=ce0cf910
DTITLE=George Strait - For The Last Time (Live From The Astrodome)
DYEAR=2003
DGENRE=Country
TTITLE0=Deep In The Heart Of Texas
TTITLE1=Write This Down
TTITLE2=I Can Still Make Cheyenne
TTITLE3=Heartland
TTITLE4=Love Without End Amen
TTITLE5=Check Yes Or No
TTITLE6=The Fireman
TTITLE7=Run
TTITLE8=Murder On Music Row
TTITLE9=The Chair
TTITLE10=She'll Leave You With A Smile
TTITLE11=Amarillo By Morning
TTITLE12=Living And Living Well
TTITLE13=Take Me Back To Tulsa
TTITLE14=Blue Clear Sky
TTITLE15=The Cowboy Rides Away
EXTD=ID3G:   2 YEAR: 2003
EXTT0=
EXTT1=
EXTT2=
EXTT3=
EXTT4=
EXTT5=
EXTT6=
EXTT7=
EXTT8=
EXTT9=
EXTT10=
EXTT11=
EXTT12=
EXTT13=
EXTT14=
EXTT15=
PLAYORDER=
